# xmcd
#
# Track frame offsets: 
#        150
#        20169
#        40669
#        59398
#        79913
#        101334
#        121417
#        140832
#        163066
#        181599
#        203716
#        222267
#        242153
#        260408
#        281141
#
# Disc length: 3921 seconds
#
# Revision: 2
# Processed by: cddbd v1.5.2PL0 Copyright (c) Steve Scherf et al.
# Submitted via: ExactAudioCopyFreeDBPlugin 1.0
#
DISCID=db0f4f0f
DTITLE=杨蔓 - DTS51蓝眼泪1
DYEAR=2008
DGENRE=DTS
TTITLE0=9999滴眼泪(懂爱的人)
TTITLE1=爱人
TTITLE2=别再说你爱着我
TTITLE3=放弃我是你的错
TTITLE4=风中的遗憾
TTITLE5=疯狂着迷
TTITLE6=好想好好爱你
TTITLE7=蓝眼泪
TTITLE8=留爱给最想爱的人
TTITLE9=你的选择
TTITLE10=欲哭无泪
TTITLE11=眼泪
TTITLE12=秋天不回来
TTITLE13=遇上你是我的缘
TTITLE14=走过咖啡屋
EXTD=
EXTT0=
EXTT1=
EXTT2=
EXTT3=
EXTT4=
EXTT5=
EXTT6=
EXTT7=
EXTT8=
EXTT9=
EXTT10=
EXTT11=
EXTT12=
EXTT13=
EXTT14=
PLAYORDER=
